<?xml version="1.0" standalone="no"?>
<!DOCTYPE svg PUBLIC "-//W3C//DTD SVG 20010904//EN"
 "http://www.w3.org/TR/2001/REC-SVG-20010904/DTD/svg10.dtd">
<svg version="1.0" xmlns="http://www.w3.org/2000/svg"
 width="16.000000pt" height="16.000000pt" viewBox="0 0 16.000000 16.000000"
 preserveAspectRatio="xMidYMid meet">
<metadata>
Created by potrace 1.11, written by Peter Selinger 2001-2013
</metadata>
<g transform="translate(0.000000,16.000000) scale(0.010884,-0.010884)"
fill="#000000" stroke="none">
<path d="M413 1456 c-133 -33 -247 -120 -294 -225 -47 -107 -28 -315 35 -376
48 -47 82 -60 153 -60 63 0 76 3 115 30 142 99 107 302 -63 360 -53 19 -85 43
-93 70 -10 33 40 83 104 105 105 35 184 9 287 -96 162 -165 184 -364 73 -651
-46 -119 -97 -200 -185 -289 -79 -79 -116 -108 -305 -235 -51 -35 -93 -68 -91
-74 8 -34 195 45 357 151 95 62 242 202 315 299 24 33 46 62 49 65 8 7 80 131
80 137 0 3 6 19 14 36 40 93 54 168 50 280 -7 213 -133 391 -329 464 -53 20
-207 25 -272 9z"/>
<path d="M1155 1315 c-46 -25 -63 -44 -81 -91 -56 -146 119 -273 244 -177 115
87 60 268 -85 280 -32 3 -58 -1 -78 -12z"/>
<path d="M1147 910 c-101 -55 -112 -197 -19 -268 29 -22 46 -27 93 -27 62 0
94 17 133 69 29 39 29 133 0 172 -52 70 -136 92 -207 54z"/>
</g>
</svg>
